<svg width="100" height="100" viewBox="0 0 100 100" fill="none" xmlns="http://www.w3.org/2000/svg">
<path d="M27.5862 100C42.8216 100 55.1724 87.6493 55.1724 72.4138C55.1724 57.1784 42.8216 44.8276 27.5862 44.8276C12.3508 44.8276 0 57.1784 0 72.4138C0 87.6493 12.3508 100 27.5862 100Z" fill="#FDB62F"/>
<path d="M27.5861 93.1034C39.0127 93.1034 48.2758 83.8404 48.2758 72.4138C48.2758 60.9872 39.0127 51.7241 27.5861 51.7241C16.1596 51.7241 6.89648 60.9872 6.89648 72.4138C6.89648 83.8404 16.1596 93.1034 27.5861 93.1034Z" fill="#FFA12E"/>
<path d="M72.4138 55.1724C87.6493 55.1724 100 42.8216 100 27.5862C100 12.3508 87.6493 0 72.4138 0C57.1784 0 44.8276 12.3508 44.8276 27.5862C44.8276 42.8216 57.1784 55.1724 72.4138 55.1724Z" fill="#FDB62F"/>
<path d="M72.4138 48.2758C83.8404 48.2758 93.1034 39.0127 93.1034 27.5861C93.1034 16.1596 83.8404 6.89648 72.4138 6.89648C60.9872 6.89648 51.7241 16.1596 51.7241 27.5861C51.7241 39.0127 60.9872 48.2758 72.4138 48.2758Z" fill="#FFA12E"/>
<path d="M29.3104 84.4827V87.931H32.7587V84.2456C36.4441 83.2973 38.6639 79.5473 37.7156 75.862C36.9398 72.8232 34.1811 70.6896 31.0346 70.6896H24.138C22.2415 70.6896 20.6898 69.1379 20.6898 67.2413C20.6898 65.3448 22.2415 63.793 24.138 63.793H31.0346C32.9311 63.793 34.4829 65.3448 34.4829 67.2413H37.9311C37.9096 64.1163 35.7975 61.3792 32.7587 60.5818V56.8965H29.3104V60.3448H25.8622V56.8965H22.4139V60.5818C18.7285 61.5301 16.5087 65.2801 17.457 68.9655C18.2329 72.0042 20.9915 74.1379 24.138 74.1379H31.0346C32.9311 74.1379 34.4829 75.6896 34.4829 77.5861C34.4829 79.4827 32.9311 81.0344 31.0346 81.0344H24.138C22.2415 81.0344 20.6898 79.4827 20.6898 77.5861H17.2415C17.263 80.7111 19.3751 83.4482 22.4139 84.2456V87.931H25.8622V84.4827H29.3104Z" fill="#F46B27"/>
<path d="M27.5862 50C15.2155 50.0216 5.19392 60.0431 5.17236 72.4138H8.62064C8.64219 61.9397 17.112 53.4698 27.5862 53.4483V50Z" fill="#F46B27"/>
<path d="M46.5517 72.4138C46.5301 82.888 38.0603 91.3578 27.5862 91.3793V94.8276C39.9569 94.8061 49.9784 84.7845 50 72.4138H46.5517Z" fill="#F46B27"/>
<path d="M15.5172 31.0344C15.5172 22.4568 22.4569 15.5172 31.0345 15.5172H39.6551V8.62061H31.0345C18.6638 8.62061 8.62066 18.6637 8.62066 31.0344H3.44824L12.0689 41.3792L20.6896 31.0344H15.5172Z" fill="#3893FF"/>
<path d="M84.4827 70.6896C84.4827 79.2671 77.543 86.2068 68.9654 86.2068H60.3447V93.1033H68.9654C81.3361 93.1033 91.3792 83.0602 91.3792 70.6896H96.5516L87.9309 60.3447L79.3102 70.6896H84.4827Z" fill="#3893FF"/>
<path d="M74.1379 39.6551V43.1033H77.5862V39.418C81.2715 38.4697 83.4913 34.7413 82.5431 31.0559C82.1982 29.7197 81.4655 28.5128 80.4094 27.5861C83.2543 25.0861 83.556 20.7326 81.0344 17.8878C80.1293 16.8533 78.9224 16.099 77.5646 15.7542V12.0688H74.1163V15.5171H70.6681V12.0688H67.2198V15.5171H63.7715C62.8232 15.5171 62.0474 16.293 62.0474 17.2413V37.9309C62.0474 38.8792 62.8232 39.6551 63.7715 39.6551H67.2198V43.1033H70.6681V39.6551H74.1379ZM65.5172 18.9654H75.862C77.7586 18.9654 79.3103 20.5171 79.3103 22.4137C79.3103 24.3102 77.7586 25.862 75.862 25.862H65.5172V18.9654ZM65.5172 29.3102H75.862C77.7586 29.3102 79.3103 30.862 79.3103 32.7585C79.3103 34.6551 77.7586 36.2068 75.862 36.2068H65.5172V29.3102Z" fill="#F46B27"/>
<path d="M72.4138 5.17236C60.0431 5.19392 50.0216 15.2155 50 27.5862H53.4483C53.4698 17.112 61.9397 8.64219 72.4138 8.62064V5.17236Z" fill="#F46B27"/>
<path d="M91.3793 27.5862C91.3578 38.0603 82.888 46.5301 72.4138 46.5517V50C84.7845 49.9784 94.8061 39.9569 94.8276 27.5862H91.3793Z" fill="#F46B27"/>
</svg>
