<svg width="81" height="96" viewBox="0 0 81 96" fill="none" xmlns="http://www.w3.org/2000/svg">
<path d="M81 15.9562V65.4187C81 71.9062 77.3743 77.775 71.5275 80.7188L48.4443 94.125L48.3684 94.1625C45.9006 95.4 43.2051 96 40.5095 96C37.8139 96 35.0994 95.3813 32.6506 94.1625L32.4987 94.0688L9.47246 80.7188C3.62573 77.775 0 71.9062 0 65.4187V15.9562C0 13.2937 1.80337 10.9688 4.40403 10.275L39.5603 0.13125L39.5983 0.1125C39.902 0.0375 40.2058 0 40.5095 0C40.8132 0 41.1169 0.0375 41.4207 0.1125L41.4966 0.13125L76.615 10.275C79.1966 10.9688 81 13.2937 81 15.9562Z" fill="#FFDA2D"/>
<path d="M81 15.9562V65.4187C81 71.9062 77.3743 77.775 71.5275 80.7188L48.4443 94.125L48.3684 94.1625C45.9006 95.4 43.2051 96 40.5095 96V0C40.8132 0 41.1169 0.0375 41.4207 0.1125L41.4966 0.13125L76.615 10.275C79.1966 10.9688 81 13.2937 81 15.9562Z" fill="#FDBF00"/>
<path d="M64.9025 46.05C64.9025 59.3438 53.9494 70.1438 40.5095 70.1438C27.0696 70.1438 16.0975 59.3438 16.0975 46.05C16.0975 32.7563 27.0316 21.9563 40.4905 21.9563C53.9494 21.9563 64.9025 32.7563 64.9025 46.05Z" fill="#FFB64C"/>
<path d="M64.9025 46.05C64.9025 59.3438 53.9494 70.1438 40.5095 70.1438V21.9563C53.9494 21.9563 64.9025 32.7563 64.9025 46.05Z" fill="#FF9F00"/>
<path d="M43.3379 35.6438V47.625C43.3379 49.1813 42.0661 50.4375 40.5095 50.4375H40.4905C38.9149 50.4375 37.6431 49.1813 37.6431 47.625V35.6438C37.6431 34.0875 38.9149 32.8313 40.4905 32.8313H40.5095C42.0661 32.8313 43.3379 34.0875 43.3379 35.6438Z" fill="#FF7D43"/>
<path d="M43.3379 56.4562C43.3379 56.55 43.3379 56.6437 43.3189 56.7375C43.3189 56.8312 43.3 56.925 43.281 57.0187C43.262 57.1125 43.243 57.2062 43.2051 57.2812C43.1861 57.375 43.1481 57.45 43.1101 57.5437C43.0722 57.6375 43.0342 57.7125 42.9962 57.7875C42.9583 57.8625 42.9013 57.9562 42.8444 58.0312C42.7874 58.1062 42.7305 58.1812 42.6735 58.2562C42.6166 58.3312 42.5407 58.4062 42.4837 58.4624C42.4078 58.5187 42.3508 58.5937 42.2749 58.6499C42.199 58.7062 42.123 58.7625 42.0471 58.8187C41.9712 58.875 41.8952 58.9125 41.8003 58.9687C41.7244 59.0062 41.6295 59.0437 41.5535 59.0812C41.4586 59.1187 41.3827 59.1562 41.2878 59.175C41.1929 59.1937 41.098 59.2312 41.022 59.25C40.9271 59.2687 40.8322 59.2875 40.7373 59.2875C40.6424 59.2875 40.5664 59.3062 40.4715 59.3062H40.4525C40.3576 59.3062 40.2627 59.3062 40.1678 59.2875C40.0729 59.2875 39.978 59.2687 39.883 59.25C39.7881 59.2312 39.6932 59.2125 39.6173 59.175C39.5224 59.1562 39.4464 59.1187 39.3515 59.0812C39.2566 59.0437 39.1807 59.0062 39.1047 58.9687C39.0288 58.9312 38.9339 58.875 38.858 58.8187C38.782 58.7625 38.7061 58.7062 38.6302 58.6499C38.5542 58.5937 38.4783 58.5187 38.4214 58.4624C38.3644 58.3874 38.2885 58.3312 38.2315 58.2562C38.1746 58.1812 38.1176 58.1062 38.0607 58.0312C38.0037 57.9562 37.9658 57.8812 37.9088 57.7875C37.8709 57.7125 37.8329 57.6187 37.7949 57.5437C37.757 57.4687 37.719 57.375 37.7 57.2812C37.681 57.1875 37.6431 57.0937 37.6241 57.0187C37.6051 56.925 37.5861 56.8312 37.5861 56.7375C37.5671 56.6437 37.5671 56.55 37.5671 56.4562C37.5671 56.3625 37.5671 56.2687 37.5861 56.175C37.6051 56.0812 37.6051 55.9875 37.6241 55.8937C37.6431 55.8 37.662 55.7062 37.7 55.6312C37.719 55.5375 37.757 55.4624 37.7949 55.3687C37.8329 55.2749 37.8709 55.2 37.9088 55.125C37.9468 55.05 38.0037 54.9562 38.0607 54.8812C38.1176 54.8062 38.1746 54.7312 38.2315 54.6562C38.2885 54.5812 38.3644 54.5062 38.4214 54.45C38.4973 54.375 38.5542 54.3187 38.6302 54.2625C38.7061 54.2062 38.782 54.15 38.858 54.0937C38.9339 54.0375 39.0098 54 39.1047 53.9437C39.1807 53.9062 39.2756 53.8687 39.3515 53.8312C39.4275 53.7937 39.5224 53.7562 39.6173 53.7375C39.7122 53.7187 39.8071 53.6812 39.883 53.6625C39.978 53.6437 40.0729 53.625 40.1678 53.625C40.2627 53.625 40.3576 53.6062 40.4715 53.6062C40.5664 53.6062 40.6424 53.6062 40.7373 53.625C40.8322 53.625 40.9271 53.6437 41.022 53.6625C41.1169 53.6812 41.2118 53.7 41.2878 53.7375C41.3827 53.775 41.4586 53.7937 41.5535 53.8312C41.6485 53.8687 41.7244 53.9062 41.8003 53.9437C41.8762 53.9812 41.9712 54.0375 42.0471 54.0937C42.123 54.15 42.199 54.2062 42.2749 54.2625C42.3508 54.3187 42.4268 54.375 42.4837 54.45C42.5407 54.5062 42.6166 54.5812 42.6735 54.6562C42.7305 54.7312 42.7874 54.8062 42.8444 54.8812C42.9013 54.9562 42.9393 55.0312 42.9962 55.125C43.0342 55.2 43.0722 55.2937 43.1101 55.3687C43.1481 55.4624 43.1861 55.5375 43.2051 55.6312C43.224 55.725 43.262 55.8 43.281 55.8937C43.3 55.9875 43.3189 56.0812 43.3189 56.175C43.3379 56.2687 43.3379 56.3625 43.3379 56.4562Z" fill="#FF7D43"/>
<path d="M43.319 56.1749C43.319 56.2687 43.3379 56.3624 43.3379 56.4562C43.3379 56.5499 43.3379 56.6437 43.319 56.7374C43.319 56.8312 43.3 56.9249 43.281 57.0187C43.262 57.1124 43.243 57.2062 43.2051 57.2812C43.1861 57.3749 43.1481 57.4499 43.1101 57.5437C43.0722 57.6374 43.0342 57.7124 42.9962 57.7874C42.9583 57.8624 42.9013 57.9562 42.8444 58.0312C42.7874 58.1062 42.7305 58.1812 42.6735 58.2562C42.6166 58.3312 42.5407 58.4062 42.4837 58.4624C42.4078 58.5187 42.3508 58.5937 42.2749 58.6499C42.199 58.7062 42.123 58.7624 42.0471 58.8187C41.9712 58.8749 41.8952 58.9124 41.8003 58.9687C41.7244 59.0062 41.6295 59.0437 41.5535 59.0812C41.4586 59.1187 41.3827 59.1562 41.2878 59.1749C41.1929 59.1937 41.098 59.2312 41.022 59.2499C40.9271 59.2687 40.8322 59.2874 40.7373 59.2874C40.6424 59.2874 40.5664 59.3062 40.4715 59.3062V53.6812C40.5664 53.6812 40.6424 53.6812 40.7373 53.6999C40.8322 53.6999 40.9271 53.7187 41.022 53.7374C41.1169 53.7562 41.2119 53.7749 41.2878 53.8124C41.3827 53.8499 41.4586 53.8687 41.5535 53.9062C41.6485 53.9437 41.7244 53.9812 41.8003 54.0187C41.8763 54.0562 41.9712 54.1124 42.0471 54.1687C42.123 54.2249 42.199 54.2812 42.2749 54.3374C42.3508 54.3937 42.4268 54.4499 42.4837 54.5249C42.5407 54.5812 42.6166 54.6562 42.6735 54.7312C42.7305 54.8062 42.7874 54.8812 42.8444 54.9562C42.9013 55.0312 42.9393 55.1062 42.9962 55.1999C43.0342 55.2749 43.0722 55.3687 43.1101 55.4437C43.1481 55.5374 43.1861 55.6124 43.2051 55.7062C43.224 55.7999 43.262 55.8749 43.281 55.9687C43.3 55.9874 43.319 56.0812 43.319 56.1749Z" fill="#FF641A"/>
<path d="M43.3379 35.6438V47.625C43.3379 49.1813 42.0661 50.4375 40.5095 50.4375V32.8313C42.0661 32.8313 43.3379 34.0875 43.3379 35.6438Z" fill="#FF641A"/>
</svg>
